<svg width="979" height="591" viewBox="0 0 979 591" fill="none" xmlns="http://www.w3.org/2000/svg">
<rect width="979" height="591" fill="#D9D9D9"/>
<g clip-path="url(#clip0_580_261)">
<path d="M682 189.5V215C681.7 214.87 680.83 215.01 680.71 215.71C672.88 262.34 632.52 296.3 585.18 296.03C573.02 295.96 561.6 298.55 550.66 302.74C548.53 299.11 548.5 294.53 548.24 289.99C547.44 275.96 552.9 263.04 563.16 253.66C568.35 248.91 568.24 240.46 562.55 236.19C546.44 224.09 525.69 221.71 507.02 229.04C500.6 231.56 494.5 233.81 487.78 235C473.77 233.08 464.53 225.1 449.43 225.45C430.86 225.88 414.14 235.99 404.44 251.7C396.12 265.19 393.15 280.14 394.12 296.14C396.09 328.66 410.12 359.14 432.78 382.34C444.75 394.59 456.5 393.47 471.13 387.34C477.25 384.77 483.24 383.47 490.12 383.37C486.26 437.16 524.38 482.19 577.74 488H383.5C338.16 481.97 304.03 447.84 298 402.5V380C305.89 281.61 388.02 207.92 487.05 212.02L486.35 219.51C486.21 221.05 486.6 222.31 487.4 223.27C488.26 224.3 489.73 224.86 491.5 224.64C501.54 223.38 510.3 218.7 517.76 211.76L585.21 212.02C612.91 212.13 635.83 192.06 639.49 165.29C643.21 138.02 626.28 113.68 600.26 105.5C602.57 105.31 604.61 105.5 607.12 106.08C647.81 115.45 676.68 148.78 682.01 189.5H682Z" fill="#2D2D2D"/>
<path d="M596.5 104C597.58 104.68 599.03 105.12 600.25 105.5C626.27 113.68 643.2 138.03 639.48 165.29C635.83 192.06 612.9 212.12 585.2 212.02L517.75 211.76C518.22 210.57 519.05 209.51 520.09 208.33C527.81 199.66 532.36 188.77 532.32 177.08C532.32 174.27 529.64 173.01 527.24 173.51C507.27 177.65 492.19 192.14 487.05 212.02C388.02 207.92 305.89 281.61 298 380V188.75C304.57 146.97 338.11 104 383.5 104H596.5Z" fill="#464646"/>
<path d="M682 215V403.25C681.51 403.36 681.31 403.97 681.22 404.72C677.7 434.47 659.02 461.1 633.19 475.77C621.37 482.48 609.16 485.68 596.51 488H577.76C524.39 482.19 486.28 437.15 490.14 383.37C496.56 383.28 502.89 384.37 509.22 387.05C524.34 393.46 537.19 394.3 549.4 381.56C559.95 370.55 568.4 357.95 574.51 343.99C577.18 337.87 574.64 331.93 569.44 328.35C560.41 322.13 553.53 313.54 550.68 302.74C561.61 298.55 573.04 295.97 585.2 296.03C632.54 296.3 672.9 262.33 680.73 215.71C680.85 215.01 681.71 214.87 682.02 215H682Z" fill="#141414"/>
<path d="M550.67 302.74C553.52 313.54 560.4 322.12 569.43 328.35C574.63 331.93 577.17 337.87 574.5 343.99C568.39 357.96 559.94 370.55 549.39 381.56C537.18 394.3 524.34 393.47 509.21 387.05C502.88 384.37 496.56 383.27 490.13 383.37C483.26 383.47 477.26 384.77 471.14 387.34C456.52 393.48 444.77 394.6 432.79 382.34C410.13 359.15 396.1 328.67 394.13 296.14C393.16 280.14 396.13 265.19 404.45 251.7C414.14 235.99 430.87 225.88 449.44 225.45C464.54 225.1 473.78 233.08 487.79 235C494.51 233.8 500.61 231.56 507.03 229.04C525.7 221.71 546.44 224.09 562.56 236.19C568.25 240.46 568.36 248.91 563.17 253.66C552.91 263.05 547.45 275.96 548.25 289.99C548.51 294.53 548.54 299.11 550.67 302.74Z" fill="#FDFDFD"/>
<path d="M517.75 211.76C510.29 218.69 501.53 223.38 491.49 224.64C489.73 224.86 488.26 224.3 487.39 223.27C486.58 222.31 486.19 221.05 486.34 219.51L487.04 212.02C492.18 192.14 507.26 177.65 527.23 173.51C529.64 173.01 532.3 174.27 532.31 177.08C532.36 188.76 527.8 199.65 520.08 208.33C519.03 209.51 518.21 210.57 517.74 211.76H517.75Z" fill="#FCFCFC"/>
</g>
<defs>
<clipPath id="clip0_580_261">
<rect width="384.02" height="384" fill="white" transform="translate(298 104)"/>
</clipPath>
</defs>
</svg>
